<?xml version="1.0" encoding="utf-8" standalone="no"?>
<!DOCTYPE svg PUBLIC "-//W3C//DTD SVG 1.1//EN"
  "http://www.w3.org/Graphics/SVG/1.1/DTD/svg11.dtd">
<svg xmlns:xlink="http://www.w3.org/1999/xlink" width="864pt" height="432pt" viewBox="0 0 864 432" xmlns="http://www.w3.org/2000/svg" version="1.1">
 <metadata>
  <rdf:RDF xmlns:dc="http://purl.org/dc/elements/1.1/" xmlns:cc="http://creativecommons.org/ns#" xmlns:rdf="http://www.w3.org/1999/02/22-rdf-syntax-ns#">
   <cc:Work>
    <dc:type rdf:resource="http://purl.org/dc/dcmitype/StillImage"/>
    <dc:date>2023-09-14T11:36:24.785705</dc:date>
    <dc:format>image/svg+xml</dc:format>
    <dc:creator>
     <cc:Agent>
      <dc:title>Matplotlib v3.7.1, https://matplotlib.org/</dc:title>
     </cc:Agent>
    </dc:creator>
   </cc:Work>
  </rdf:RDF>
 </metadata>
 <defs>
  <style type="text/css">*{stroke-linejoin: round; stroke-linecap: butt}</style>
 </defs>
 <g id="figure_1">
  <g id="patch_1">
   <path d="M 0 432 
L 864 432 
L 864 0 
L 0 0 
z
" style="fill: #ffffff"/>
  </g>
  <g id="axes_1">
   <g id="patch_2">
    <path d="M 108 384.48 
L 777.6 384.48 
L 777.6 51.84 
L 108 51.84 
z
" style="fill: #ffffff"/>
   </g>
   <g id="patch_3">
    <path d="M 138.436364 384.48 
L 179.706009 384.48 
L 179.706009 67.68 
L 138.436364 67.68 
z
" clip-path="url(#p05031b8090)"/>
   </g>
   <g id="patch_4">
    <path d="M 190.023421 384.48 
L 231.293066 384.48 
L 231.293066 67.68 
L 190.023421 67.68 
z
" clip-path="url(#p05031b8090)"/>
   </g>
   <g id="patch_5">
    <path d="M 241.610478 384.48 
L 282.880123 384.48 
L 282.880123 67.68 
L 241.610478 67.68 
z
" clip-path="url(#p05031b8090)"/>
   </g>
   <g id="patch_6">
    <path d="M 293.197535 384.48 
L 334.46718 384.48 
L 334.46718 67.68 
L 293.197535 67.68 
z
" clip-path="url(#p05031b8090)"/>
   </g>
   <g id="patch_7">
    <path d="M 344.784592 384.48 
L 386.054237 384.48 
L 386.054237 67.68 
L 344.784592 67.68 
z
" clip-path="url(#p05031b8090)"/>
   </g>
   <g id="patch_8">
    <path d="M 396.371649 384.48 
L 437.641294 384.48 
L 437.641294 67.68 
L 396.371649 67.68 
z
" clip-path="url(#p05031b8090)"/>
   </g>
   <g id="patch_9">
    <path d="M 447.958706 384.48 
L 489.228351 384.48 
L 489.228351 67.68 
L 447.958706 67.68 
z
" clip-path="url(#p05031b8090)"/>
   </g>
   <g id="patch_10">
    <path d="M 499.545763 384.48 
L 540.815408 384.48 
L 540.815408 67.68 
L 499.545763 67.68 
z
" clip-path="url(#p05031b8090)"/>
   </g>
   <g id="patch_11">
    <path d="M 551.13282 384.48 
L 592.402465 384.48 
L 592.402465 131.04 
L 551.13282 131.04 
z
" clip-path="url(#p05031b8090)"/>
   </g>
   <g id="patch_12">
    <path d="M 602.719877 384.48 
L 643.989522 384.48 
L 643.989522 67.68 
L 602.719877 67.68 
z
" clip-path="url(#p05031b8090)"/>
   </g>
   <g id="patch_13">
    <path d="M 654.306934 384.48 
L 695.576579 384.48 
L 695.576579 67.68 
L 654.306934 67.68 
z
" clip-path="url(#p05031b8090)"/>
   </g>
   <g id="patch_14">
    <path d="M 705.893991 384.48 
L 747.163636 384.48 
L 747.163636 67.68 
L 705.893991 67.68 
z
" clip-path="url(#p05031b8090)"/>
   </g>
   <g id="patch_15">
    <path d="M 138.436364 384.48 
L 179.706009 384.48 
L 179.706009 131.04 
L 138.436364 131.04 
z
" clip-path="url(#p05031b8090)" style="fill: #ff0000"/>
   </g>
   <g id="patch_16">
    <path d="M 190.023421 384.48 
L 231.293066 384.48 
L 231.293066 131.04 
L 190.023421 131.04 
z
" clip-path="url(#p05031b8090)" style="fill: #ff0000"/>
   </g>
   <g id="patch_17">
    <path d="M 241.610478 384.48 
L 282.880123 384.48 
L 282.880123 131.04 
L 241.610478 131.04 
z
" clip-path="url(#p05031b8090)" style="fill: #ff0000"/>
   </g>
   <g id="patch_18">
    <path d="M 293.197535 384.48 
L 334.46718 384.48 
L 334.46718 131.04 
L 293.197535 131.04 
z
" clip-path="url(#p05031b8090)" style="fill: #ff0000"/>
   </g>
   <g id="patch_19">
    <path d="M 344.784592 384.48 
L 386.054237 384.48 
L 386.054237 131.04 
L 344.784592 131.04 
z
" clip-path="url(#p05031b8090)" style="fill: #ff0000"/>
   </g>
   <g id="patch_20">
    <path d="M 396.371649 384.48 
L 437.641294 384.48 
L 437.641294 131.04 
L 396.371649 131.04 
z
" clip-path="url(#p05031b8090)" style="fill: #ff0000"/>
   </g>
   <g id="patch_21">
    <path d="M 447.958706 384.48 
L 489.228351 384.48 
L 489.228351 131.04 
L 447.958706 131.04 
z
" clip-path="url(#p05031b8090)" style="fill: #ff0000"/>
   </g>
   <g id="patch_22">
    <path d="M 499.545763 384.48 
L 540.815408 384.48 
L 540.815408 131.04 
L 499.545763 131.04 
z
" clip-path="url(#p05031b8090)" style="fill: #ff0000"/>
   </g>
   <g id="patch_23">
    <path d="M 551.13282 384.48 
L 592.402465 384.48 
L 592.402465 194.4 
L 551.13282 194.4 
z
" clip-path="url(#p05031b8090)" style="fill: #ff0000"/>
   </g>
   <g id="patch_24">
    <path d="M 602.719877 384.48 
L 643.989522 384.48 
L 643.989522 131.04 
L 602.719877 131.04 
z
" clip-path="url(#p05031b8090)" style="fill: #ff0000"/>
   </g>
   <g id="patch_25">
    <path d="M 654.306934 384.48 
L 695.576579 384.48 
L 695.576579 131.04 
L 654.306934 131.04 
z
" clip-path="url(#p05031b8090)" style="fill: #ff0000"/>
   </g>
   <g id="patch_26">
    <path d="M 705.893991 384.48 
L 747.163636 384.48 
L 747.163636 131.04 
L 705.893991 131.04 
z
" clip-path="url(#p05031b8090)" style="fill: #ff0000"/>
   </g>
   <g id="patch_27">
    <path d="M 138.436364 384.48 
L 179.706009 384.48 
L 179.706009 131.04 
L 138.436364 131.04 
z
" clip-path="url(#p05031b8090)" style="fill: #ffa500"/>
   </g>
   <g id="patch_28">
    <path d="M 190.023421 384.48 
L 231.293066 384.48 
L 231.293066 131.04 
L 190.023421 131.04 
z
" clip-path="url(#p05031b8090)" style="fill: #ffa500"/>
   </g>
   <g id="patch_29">
    <path d="M 241.610478 384.48 
L 282.880123 384.48 
L 282.880123 194.4 
L 241.610478 194.4 
z
" clip-path="url(#p05031b8090)" style="fill: #ffa500"/>
   </g>
   <g id="patch_30">
    <path d="M 293.197535 384.48 
L 334.46718 384.48 
L 334.46718 131.04 
L 293.197535 131.04 
z
" clip-path="url(#p05031b8090)" style="fill: #ffa500"/>
   </g>
   <g id="patch_31">
    <path d="M 344.784592 384.48 
L 386.054237 384.48 
L 386.054237 194.4 
L 344.784592 194.4 
z
" clip-path="url(#p05031b8090)" style="fill: #ffa500"/>
   </g>
   <g id="patch_32">
    <path d="M 396.371649 384.48 
L 437.641294 384.48 
L 437.641294 194.4 
L 396.371649 194.4 
z
" clip-path="url(#p05031b8090)" style="fill: #ffa500"/>
   </g>
   <g id="patch_33">
    <path d="M 447.958706 384.48 
L 489.228351 384.48 
L 489.228351 131.04 
L 447.958706 131.04 
z
" clip-path="url(#p05031b8090)" style="fill: #ffa500"/>
   </g>
   <g id="patch_34">
    <path d="M 499.545763 384.48 
L 540.815408 384.48 
L 540.815408 131.04 
L 499.545763 131.04 
z
" clip-path="url(#p05031b8090)" style="fill: #ffa500"/>
   </g>
   <g id="patch_35">
    <path d="M 551.13282 384.48 
L 592.402465 384.48 
L 592.402465 194.4 
L 551.13282 194.4 
z
" clip-path="url(#p05031b8090)" style="fill: #ffa500"/>
   </g>
   <g id="patch_36">
    <path d="M 602.719877 384.48 
L 643.989522 384.48 
L 643.989522 131.04 
L 602.719877 131.04 
z
" clip-path="url(#p05031b8090)" style="fill: #ffa500"/>
   </g>
   <g id="patch_37">
    <path d="M 654.306934 384.48 
L 695.576579 384.48 
L 695.576579 194.4 
L 654.306934 194.4 
z
" clip-path="url(#p05031b8090)" style="fill: #ffa500"/>
   </g>
   <g id="patch_38">
    <path d="M 705.893991 384.48 
L 747.163636 384.48 
L 747.163636 131.04 
L 705.893991 131.04 
z
" clip-path="url(#p05031b8090)" style="fill: #ffa500"/>
   </g>
   <g id="matplotlib.axis_1">
    <g id="xtick_1">
     <g id="line2d_1">
      <path d="M 159.071186 384.48 
L 159.071186 51.84 
" clip-path="url(#p05031b8090)" style="fill: none; stroke: #b0b0b0; stroke-width: 0.8; stroke-linecap: square"/>
     </g>
     <g id="line2d_2">
      <defs>
       <path id="m5b1c6bd2f4" d="M 0 0 
L 0 3.5 
" style="stroke: #000000; stroke-width: 0.8"/>
      </defs>
      <g>
       <use xlink:href="#m5b1c6bd2f4" x="159.071186" y="384.48" style="stroke: #000000; stroke-width: 0.8"/>
      </g>
     </g>
     <g id="text_1">
      <!-- AtlantaGA -->
      <g transform="translate(161.830561 441.947187) rotate(-90) scale(0.1 -0.1)">
       <defs>
        <path id="DejaVuSans-41" d="M 2188 4044 
L 1331 1722 
L 3047 1722 
L 2188 4044 
z
M 1831 4666 
L 2547 4666 
L 4325 0 
L 3669 0 
L 3244 1197 
L 1141 1197 
L 716 0 
L 50 0 
L 1831 4666 
z
" transform="scale(0.015625)"/>
        <path id="DejaVuSans-74" d="M 1172 4494 
L 1172 3500 
L 2356 3500 
L 2356 3053 
L 1172 3053 
L 1172 1153 
Q 1172 725 1289 603 
Q 1406 481 1766 481 
L 2356 481 
L 2356 0 
L 1766 0 
Q 1100 0 847 248 
Q 594 497 594 1153 
L 594 3053 
L 172 3053 
L 172 3500 
L 594 3500 
L 594 4494 
L 1172 4494 
z
" transform="scale(0.015625)"/>
        <path id="DejaVuSans-6c" d="M 603 4863 
L 1178 4863 
L 1178 0 
L 603 0 
L 603 4863 
z
" transform="scale(0.015625)"/>
        <path id="DejaVuSans-61" d="M 2194 1759 
Q 1497 1759 1228 1600 
Q 959 1441 959 1056 
Q 959 750 1161 570 
Q 1363 391 1709 391 
Q 2188 391 2477 730 
Q 2766 1069 2766 1631 
L 2766 1759 
L 2194 1759 
z
M 3341 1997 
L 3341 0 
L 2766 0 
L 2766 531 
Q 2569 213 2275 61 
Q 1981 -91 1556 -91 
Q 1019 -91 701 211 
Q 384 513 384 1019 
Q 384 1609 779 1909 
Q 1175 2209 1959 2209 
L 2766 2209 
L 2766 2266 
Q 2766 2663 2505 2880 
Q 2244 3097 1772 3097 
Q 1472 3097 1187 3025 
Q 903 2953 641 2809 
L 641 3341 
Q 956 3463 1253 3523 
Q 1550 3584 1831 3584 
Q 2591 3584 2966 3190 
Q 3341 2797 3341 1997 
z
" transform="scale(0.015625)"/>
        <path id="DejaVuSans-6e" d="M 3513 2113 
L 3513 0 
L 2938 0 
L 2938 2094 
Q 2938 2591 2744 2837 
Q 2550 3084 2163 3084 
Q 1697 3084 1428 2787 
Q 1159 2491 1159 1978 
L 1159 0 
L 581 0 
L 581 3500 
L 1159 3500 
L 1159 2956 
Q 1366 3272 1645 3428 
Q 1925 3584 2291 3584 
Q 2894 3584 3203 3211 
Q 3513 2838 3513 2113 
z
" transform="scale(0.015625)"/>
        <path id="DejaVuSans-47" d="M 3809 666 
L 3809 1919 
L 2778 1919 
L 2778 2438 
L 4434 2438 
L 4434 434 
Q 4069 175 3628 42 
Q 3188 -91 2688 -91 
Q 1594 -91 976 548 
Q 359 1188 359 2328 
Q 359 3472 976 4111 
Q 1594 4750 2688 4750 
Q 3144 4750 3555 4637 
Q 3966 4525 4313 4306 
L 4313 3634 
Q 3963 3931 3569 4081 
Q 3175 4231 2741 4231 
Q 1884 4231 1454 3753 
Q 1025 3275 1025 2328 
Q 1025 1384 1454 906 
Q 1884 428 2741 428 
Q 3075 428 3337 486 
Q 3600 544 3809 666 
z
" transform="scale(0.015625)"/>
       </defs>
       <use xlink:href="#DejaVuSans-41"/>
       <use xlink:href="#DejaVuSans-74" x="66.658203"/>
       <use xlink:href="#DejaVuSans-6c" x="105.867188"/>
       <use xlink:href="#DejaVuSans-61" x="133.650391"/>
       <use xlink:href="#DejaVuSans-6e" x="194.929688"/>
       <use xlink:href="#DejaVuSans-74" x="258.308594"/>
       <use xlink:href="#DejaVuSans-61" x="297.517578"/>
       <use xlink:href="#DejaVuSans-47" x="358.796875"/>
       <use xlink:href="#DejaVuSans-41" x="436.287109"/>
      </g>
     </g>
    </g>
    <g id="xtick_2">
     <g id="line2d_3">
      <path d="M 210.658243 384.48 
L 210.658243 51.84 
" clip-path="url(#p05031b8090)" style="fill: none; stroke: #b0b0b0; stroke-width: 0.8; stroke-linecap: square"/>
     </g>
     <g id="line2d_4">
      <g>
       <use xlink:href="#m5b1c6bd2f4" x="210.658243" y="384.48" style="stroke: #000000; stroke-width: 0.8"/>
      </g>
     </g>
     <g id="text_2">
      <!-- BirminghamAL -->
      <g transform="translate(213.417618 464.878438) rotate(-90) scale(0.1 -0.1)">
       <defs>
        <path id="DejaVuSans-42" d="M 1259 2228 
L 1259 519 
L 2272 519 
Q 2781 519 3026 730 
Q 3272 941 3272 1375 
Q 3272 1813 3026 2020 
Q 2781 2228 2272 2228 
L 1259 2228 
z
M 1259 4147 
L 1259 2741 
L 2194 2741 
Q 2656 2741 2882 2914 
Q 3109 3088 3109 3444 
Q 3109 3797 2882 3972 
Q 2656 4147 2194 4147 
L 1259 4147 
z
M 628 4666 
L 2241 4666 
Q 2963 4666 3353 4366 
Q 3744 4066 3744 3513 
Q 3744 3084 3544 2831 
Q 3344 2578 2956 2516 
Q 3422 2416 3680 2098 
Q 3938 1781 3938 1306 
Q 3938 681 3513 340 
Q 3088 0 2303 0 
L 628 0 
L 628 4666 
z
" transform="scale(0.015625)"/>
        <path id="DejaVuSans-69" d="M 603 3500 
L 1178 3500 
L 1178 0 
L 603 0 
L 603 3500 
z
M 603 4863 
L 1178 4863 
L 1178 4134 
L 603 4134 
L 603 4863 
z
" transform="scale(0.015625)"/>
        <path id="DejaVuSans-72" d="M 2631 2963 
Q 2534 3019 2420 3045 
Q 2306 3072 2169 3072 
Q 1681 3072 1420 2755 
Q 1159 2438 1159 1844 
L 1159 0 
L 581 0 
L 581 3500 
L 1159 3500 
L 1159 2956 
Q 1341 3275 1631 3429 
Q 1922 3584 2338 3584 
Q 2397 3584 2469 3576 
Q 2541 3569 2628 3553 
L 2631 2963 
z
" transform="scale(0.015625)"/>
        <path id="DejaVuSans-6d" d="M 3328 2828 
Q 3544 3216 3844 3400 
Q 4144 3584 4550 3584 
Q 5097 3584 5394 3201 
Q 5691 2819 5691 2113 
L 5691 0 
L 5113 0 
L 5113 2094 
Q 5113 2597 4934 2840 
Q 4756 3084 4391 3084 
Q 3944 3084 3684 2787 
Q 3425 2491 3425 1978 
L 3425 0 
L 2847 0 
L 2847 2094 
Q 2847 2600 2669 2842 
Q 2491 3084 2119 3084 
Q 1678 3084 1418 2786 
Q 1159 2488 1159 1978 
L 1159 0 
L 581 0 
L 581 3500 
L 1159 3500 
L 1159 2956 
Q 1356 3278 1631 3431 
Q 1906 3584 2284 3584 
Q 2666 3584 2933 3390 
Q 3200 3197 3328 2828 
z
" transform="scale(0.015625)"/>
        <path id="DejaVuSans-67" d="M 2906 1791 
Q 2906 2416 2648 2759 
Q 2391 3103 1925 3103 
Q 1463 3103 1205 2759 
Q 947 2416 947 1791 
Q 947 1169 1205 825 
Q 1463 481 1925 481 
Q 2391 481 2648 825 
Q 2906 1169 2906 1791 
z
M 3481 434 
Q 3481 -459 3084 -895 
Q 2688 -1331 1869 -1331 
Q 1566 -1331 1297 -1286 
Q 1028 -1241 775 -1147 
L 775 -588 
Q 1028 -725 1275 -790 
Q 1522 -856 1778 -856 
Q 2344 -856 2625 -561 
Q 2906 -266 2906 331 
L 2906 616 
Q 2728 306 2450 153 
Q 2172 0 1784 0 
Q 1141 0 747 490 
Q 353 981 353 1791 
Q 353 2603 747 3093 
Q 1141 3584 1784 3584 
Q 2172 3584 2450 3431 
Q 2728 3278 2906 2969 
L 2906 3500 
L 3481 3500 
L 3481 434 
z
" transform="scale(0.015625)"/>
        <path id="DejaVuSans-68" d="M 3513 2113 
L 3513 0 
L 2938 0 
L 2938 2094 
Q 2938 2591 2744 2837 
Q 2550 3084 2163 3084 
Q 1697 3084 1428 2787 
Q 1159 2491 1159 1978 
L 1159 0 
L 581 0 
L 581 4863 
L 1159 4863 
L 1159 2956 
Q 1366 3272 1645 3428 
Q 1925 3584 2291 3584 
Q 2894 3584 3203 3211 
Q 3513 2838 3513 2113 
z
" transform="scale(0.015625)"/>
        <path id="DejaVuSans-4c" d="M 628 4666 
L 1259 4666 
L 1259 531 
L 3531 531 
L 3531 0 
L 628 0 
L 628 4666 
z
" transform="scale(0.015625)"/>
       </defs>
       <use xlink:href="#DejaVuSans-42"/>
       <use xlink:href="#DejaVuSans-69" x="68.603516"/>
       <use xlink:href="#DejaVuSans-72" x="96.386719"/>
       <use xlink:href="#DejaVuSans-6d" x="135.75"/>
       <use xlink:href="#DejaVuSans-69" x="233.162109"/>
       <use xlink:href="#DejaVuSans-6e" x="260.945312"/>
       <use xlink:href="#DejaVuSans-67" x="324.324219"/>
       <use xlink:href="#DejaVuSans-68" x="387.800781"/>
       <use xlink:href="#DejaVuSans-61" x="451.179688"/>
       <use xlink:href="#DejaVuSans-6d" x="512.458984"/>
       <use xlink:href="#DejaVuSans-41" x="609.871094"/>
       <use xlink:href="#DejaVuSans-4c" x="678.279297"/>
      </g>
     </g>
    </g>
    <g id="xtick_3">
     <g id="line2d_5">
      <path d="M 262.2453 384.48 
L 262.2453 51.84 
" clip-path="url(#p05031b8090)" style="fill: none; stroke: #b0b0b0; stroke-width: 0.8; stroke-linecap: square"/>
     </g>
     <g id="line2d_6">
      <g>
       <use xlink:href="#m5b1c6bd2f4" x="262.2453" y="384.48" style="stroke: #000000; stroke-width: 0.8"/>
      </g>
     </g>
     <g id="text_3">
      <!-- ColumbiaMO -->
      <g transform="translate(265.004675 455.1925) rotate(-90) scale(0.1 -0.1)">
       <defs>
        <path id="DejaVuSans-43" d="M 4122 4306 
L 4122 3641 
Q 3803 3938 3442 4084 
Q 3081 4231 2675 4231 
Q 1875 4231 1450 3742 
Q 1025 3253 1025 2328 
Q 1025 1406 1450 917 
Q 1875 428 2675 428 
Q 3081 428 3442 575 
Q 3803 722 4122 1019 
L 4122 359 
Q 3791 134 3420 21 
Q 3050 -91 2638 -91 
Q 1578 -91 968 557 
Q 359 1206 359 2328 
Q 359 3453 968 4101 
Q 1578 4750 2638 4750 
Q 3056 4750 3426 4639 
Q 3797 4528 4122 4306 
z
" transform="scale(0.015625)"/>
        <path id="DejaVuSans-6f" d="M 1959 3097 
Q 1497 3097 1228 2736 
Q 959 2375 959 1747 
Q 959 1119 1226 758 
Q 1494 397 1959 397 
Q 2419 397 2687 759 
Q 2956 1122 2956 1747 
Q 2956 2369 2687 2733 
Q 2419 3097 1959 3097 
z
M 1959 3584 
Q 2709 3584 3137 3096 
Q 3566 2609 3566 1747 
Q 3566 888 3137 398 
Q 2709 -91 1959 -91 
Q 1206 -91 779 398 
Q 353 888 353 1747 
Q 353 2609 779 3096 
Q 1206 3584 1959 3584 
z
" transform="scale(0.015625)"/>
        <path id="DejaVuSans-75" d="M 544 1381 
L 544 3500 
L 1119 3500 
L 1119 1403 
Q 1119 906 1312 657 
Q 1506 409 1894 409 
Q 2359 409 2629 706 
Q 2900 1003 2900 1516 
L 2900 3500 
L 3475 3500 
L 3475 0 
L 2900 0 
L 2900 538 
Q 2691 219 2414 64 
Q 2138 -91 1772 -91 
Q 1169 -91 856 284 
Q 544 659 544 1381 
z
M 1991 3584 
L 1991 3584 
z
" transform="scale(0.015625)"/>
        <path id="DejaVuSans-62" d="M 3116 1747 
Q 3116 2381 2855 2742 
Q 2594 3103 2138 3103 
Q 1681 3103 1420 2742 
Q 1159 2381 1159 1747 
Q 1159 1113 1420 752 
Q 1681 391 2138 391 
Q 2594 391 2855 752 
Q 3116 1113 3116 1747 
z
M 1159 2969 
Q 1341 3281 1617 3432 
Q 1894 3584 2278 3584 
Q 2916 3584 3314 3078 
Q 3713 2572 3713 1747 
Q 3713 922 3314 415 
Q 2916 -91 2278 -91 
Q 1894 -91 1617 61 
Q 1341 213 1159 525 
L 1159 0 
L 581 0 
L 581 4863 
L 1159 4863 
L 1159 2969 
z
" transform="scale(0.015625)"/>
        <path id="DejaVuSans-4d" d="M 628 4666 
L 1569 4666 
L 2759 1491 
L 3956 4666 
L 4897 4666 
L 4897 0 
L 4281 0 
L 4281 4097 
L 3078 897 
L 2444 897 
L 1241 4097 
L 1241 0 
L 628 0 
L 628 4666 
z
" transform="scale(0.015625)"/>
        <path id="DejaVuSans-4f" d="M 2522 4238 
Q 1834 4238 1429 3725 
Q 1025 3213 1025 2328 
Q 1025 1447 1429 934 
Q 1834 422 2522 422 
Q 3209 422 3611 934 
Q 4013 1447 4013 2328 
Q 4013 3213 3611 3725 
Q 3209 4238 2522 4238 
z
M 2522 4750 
Q 3503 4750 4090 4092 
Q 4678 3434 4678 2328 
Q 4678 1225 4090 567 
Q 3503 -91 2522 -91 
Q 1538 -91 948 565 
Q 359 1222 359 2328 
Q 359 3434 948 4092 
Q 1538 4750 2522 4750 
z
" transform="scale(0.015625)"/>
       </defs>
       <use xlink:href="#DejaVuSans-43"/>
       <use xlink:href="#DejaVuSans-6f" x="69.824219"/>
       <use xlink:href="#DejaVuSans-6c" x="131.005859"/>
       <use xlink:href="#DejaVuSans-75" x="158.789062"/>
       <use xlink:href="#DejaVuSans-6d" x="222.167969"/>
       <use xlink:href="#DejaVuSans-62" x="319.580078"/>
       <use xlink:href="#DejaVuSans-69" x="383.056641"/>
       <use xlink:href="#DejaVuSans-61" x="410.839844"/>
       <use xlink:href="#DejaVuSans-4d" x="472.119141"/>
       <use xlink:href="#DejaVuSans-4f" x="558.398438"/>
      </g>
     </g>
    </g>
    <g id="xtick_4">
     <g id="line2d_7">
      <path d="M 313.832357 384.48 
L 313.832357 51.84 
" clip-path="url(#p05031b8090)" style="fill: none; stroke: #b0b0b0; stroke-width: 0.8; stroke-linecap: square"/>
     </g>
     <g id="line2d_8">
      <g>
       <use xlink:href="#m5b1c6bd2f4" x="313.832357" y="384.48" style="stroke: #000000; stroke-width: 0.8"/>
      </g>
     </g>
     <g id="text_4">
      <!-- JacksonMS -->
      <g transform="translate(316.591732 444.489375) rotate(-90) scale(0.1 -0.1)">
       <defs>
        <path id="DejaVuSans-4a" d="M 628 4666 
L 1259 4666 
L 1259 325 
Q 1259 -519 939 -900 
Q 619 -1281 -91 -1281 
L -331 -1281 
L -331 -750 
L -134 -750 
Q 284 -750 456 -515 
Q 628 -281 628 325 
L 628 4666 
z
" transform="scale(0.015625)"/>
        <path id="DejaVuSans-63" d="M 3122 3366 
L 3122 2828 
Q 2878 2963 2633 3030 
Q 2388 3097 2138 3097 
Q 1578 3097 1268 2742 
Q 959 2388 959 1747 
Q 959 1106 1268 751 
Q 1578 397 2138 397 
Q 2388 397 2633 464 
Q 2878 531 3122 666 
L 3122 134 
Q 2881 22 2623 -34 
Q 2366 -91 2075 -91 
Q 1284 -91 818 406 
Q 353 903 353 1747 
Q 353 2603 823 3093 
Q 1294 3584 2113 3584 
Q 2378 3584 2631 3529 
Q 2884 3475 3122 3366 
z
" transform="scale(0.015625)"/>
        <path id="DejaVuSans-6b" d="M 581 4863 
L 1159 4863 
L 1159 1991 
L 2875 3500 
L 3609 3500 
L 1753 1863 
L 3688 0 
L 2938 0 
L 1159 1709 
L 1159 0 
L 581 0 
L 581 4863 
z
" transform="scale(0.015625)"/>
        <path id="DejaVuSans-73" d="M 2834 3397 
L 2834 2853 
Q 2591 2978 2328 3040 
Q 2066 3103 1784 3103 
Q 1356 3103 1142 2972 
Q 928 2841 928 2578 
Q 928 2378 1081 2264 
Q 1234 2150 1697 2047 
L 1894 2003 
Q 2506 1872 2764 1633 
Q 3022 1394 3022 966 
Q 3022 478 2636 193 
Q 2250 -91 1575 -91 
Q 1294 -91 989 -36 
Q 684 19 347 128 
L 347 722 
Q 666 556 975 473 
Q 1284 391 1588 391 
Q 1994 391 2212 530 
Q 2431 669 2431 922 
Q 2431 1156 2273 1281 
Q 2116 1406 1581 1522 
L 1381 1569 
Q 847 1681 609 1914 
Q 372 2147 372 2553 
Q 372 3047 722 3315 
Q 1072 3584 1716 3584 
Q 2034 3584 2315 3537 
Q 2597 3491 2834 3397 
z
" transform="scale(0.015625)"/>
        <path id="DejaVuSans-53" d="M 3425 4513 
L 3425 3897 
Q 3066 4069 2747 4153 
Q 2428 4238 2131 4238 
Q 1616 4238 1336 4038 
Q 1056 3838 1056 3469 
Q 1056 3159 1242 3001 
Q 1428 2844 1947 2747 
L 2328 2669 
Q 3034 2534 3370 2195 
Q 3706 1856 3706 1288 
Q 3706 609 3251 259 
Q 2797 -91 1919 -91 
Q 1588 -91 1214 -16 
Q 841 59 441 206 
L 441 856 
Q 825 641 1194 531 
Q 1563 422 1919 422 
Q 2459 422 2753 634 
Q 3047 847 3047 1241 
Q 3047 1584 2836 1778 
Q 2625 1972 2144 2069 
L 1759 2144 
Q 1053 2284 737 2584 
Q 422 2884 422 3419 
Q 422 4038 858 4394 
Q 1294 4750 2059 4750 
Q 2388 4750 2728 4690 
Q 3069 4631 3425 4513 
z
" transform="scale(0.015625)"/>
       </defs>
       <use xlink:href="#DejaVuSans-4a"/>
       <use xlink:href="#DejaVuSans-61" x="29.492188"/>
       <use xlink:href="#DejaVuSans-63" x="90.771484"/>
       <use xlink:href="#DejaVuSans-6b" x="145.751953"/>
       <use xlink:href="#DejaVuSans-73" x="203.662109"/>
       <use xlink:href="#DejaVuSans-6f" x="255.761719"/>
       <use xlink:href="#DejaVuSans-6e" x="316.943359"/>
       <use xlink:href="#DejaVuSans-4d" x="380.322266"/>
       <use xlink:href="#DejaVuSans-53" x="466.601562"/>
      </g>
     </g>
    </g>
    <g id="xtick_5">
     <g id="line2d_9">
      <path d="M 365.419414 384.48 
L 365.419414 51.84 
" clip-path="url(#p05031b8090)" style="fill: none; stroke: #b0b0b0; stroke-width: 0.8; stroke-linecap: square"/>
     </g>
     <g id="line2d_10">
      <g>
       <use xlink:href="#m5b1c6bd2f4" x="365.419414" y="384.48" style="stroke: #000000; stroke-width: 0.8"/>
      </g>
     </g>
     <g id="text_5">
      <!-- LittleRockAR -->
      <g transform="translate(368.178789 454.297188) rotate(-90) scale(0.1 -0.1)">
       <defs>
        <path id="DejaVuSans-65" d="M 3597 1894 
L 3597 1613 
L 953 1613 
Q 991 1019 1311 708 
Q 1631 397 2203 397 
Q 2534 397 2845 478 
Q 3156 559 3463 722 
L 3463 178 
Q 3153 47 2828 -22 
Q 2503 -91 2169 -91 
Q 1331 -91 842 396 
Q 353 884 353 1716 
Q 353 2575 817 3079 
Q 1281 3584 2069 3584 
Q 2775 3584 3186 3129 
Q 3597 2675 3597 1894 
z
M 3022 2063 
Q 3016 2534 2758 2815 
Q 2500 3097 2075 3097 
Q 1594 3097 1305 2825 
Q 1016 2553 972 2059 
L 3022 2063 
z
" transform="scale(0.015625)"/>
        <path id="DejaVuSans-52" d="M 2841 2188 
Q 3044 2119 3236 1894 
Q 3428 1669 3622 1275 
L 4263 0 
L 3584 0 
L 2988 1197 
Q 2756 1666 2539 1819 
Q 2322 1972 1947 1972 
L 1259 1972 
L 1259 0 
L 628 0 
L 628 4666 
L 2053 4666 
Q 2853 4666 3247 4331 
Q 3641 3997 3641 3322 
Q 3641 2881 3436 2590 
Q 3231 2300 2841 2188 
z
M 1259 4147 
L 1259 2491 
L 2053 2491 
Q 2509 2491 2742 2702 
Q 2975 2913 2975 3322 
Q 2975 3731 2742 3939 
Q 2509 4147 2053 4147 
L 1259 4147 
z
" transform="scale(0.015625)"/>
       </defs>
       <use xlink:href="#DejaVuSans-4c"/>
       <use xlink:href="#DejaVuSans-69" x="55.712891"/>
       <use xlink:href="#DejaVuSans-74" x="83.496094"/>
       <use xlink:href="#DejaVuSans-74" x="122.705078"/>
       <use xlink:href="#DejaVuSans-6c" x="161.914062"/>
       <use xlink:href="#DejaVuSans-65" x="189.697266"/>
       <use xlink:href="#DejaVuSans-52" x="251.220703"/>
       <use xlink:href="#DejaVuSans-6f" x="316.203125"/>
       <use xlink:href="#DejaVuSans-63" x="377.384766"/>
       <use xlink:href="#DejaVuSans-6b" x="432.365234"/>
       <use xlink:href="#DejaVuSans-41" x="490.275391"/>
       <use xlink:href="#DejaVuSans-52" x="558.683594"/>
      </g>
     </g>
    </g>
    <g id="xtick_6">
     <g id="line2d_11">
      <path d="M 417.006471 384.48 
L 417.006471 51.84 
" clip-path="url(#p05031b8090)" style="fill: none; stroke: #b0b0b0; stroke-width: 0.8; stroke-linecap: square"/>
     </g>
     <g id="line2d_12">
      <g>
       <use xlink:href="#m5b1c6bd2f4" x="417.006471" y="384.48" style="stroke: #000000; stroke-width: 0.8"/>
      </g>
     </g>
     <g id="text_6">
      <!-- MemphisTN -->
      <g transform="translate(419.765846 450.264375) rotate(-90) scale(0.1 -0.1)">
       <defs>
        <path id="DejaVuSans-70" d="M 1159 525 
L 1159 -1331 
L 581 -1331 
L 581 3500 
L 1159 3500 
L 1159 2969 
Q 1341 3281 1617 3432 
Q 1894 3584 2278 3584 
Q 2916 3584 3314 3078 
Q 3713 2572 3713 1747 
Q 3713 922 3314 415 
Q 2916 -91 2278 -91 
Q 1894 -91 1617 61 
Q 1341 213 1159 525 
z
M 3116 1747 
Q 3116 2381 2855 2742 
Q 2594 3103 2138 3103 
Q 1681 3103 1420 2742 
Q 1159 2381 1159 1747 
Q 1159 1113 1420 752 
Q 1681 391 2138 391 
Q 2594 391 2855 752 
Q 3116 1113 3116 1747 
z
" transform="scale(0.015625)"/>
        <path id="DejaVuSans-54" d="M -19 4666 
L 3928 4666 
L 3928 4134 
L 2272 4134 
L 2272 0 
L 1638 0 
L 1638 4134 
L -19 4134 
L -19 4666 
z
" transform="scale(0.015625)"/>
        <path id="DejaVuSans-4e" d="M 628 4666 
L 1478 4666 
L 3547 763 
L 3547 4666 
L 4159 4666 
L 4159 0 
L 3309 0 
L 1241 3903 
L 1241 0 
L 628 0 
L 628 4666 
z
" transform="scale(0.015625)"/>
       </defs>
       <use xlink:href="#DejaVuSans-4d"/>
       <use xlink:href="#DejaVuSans-65" x="86.279297"/>
       <use xlink:href="#DejaVuSans-6d" x="147.802734"/>
       <use xlink:href="#DejaVuSans-70" x="245.214844"/>
       <use xlink:href="#DejaVuSans-68" x="308.691406"/>
       <use xlink:href="#DejaVuSans-69" x="372.070312"/>
       <use xlink:href="#DejaVuSans-73" x="399.853516"/>
       <use xlink:href="#DejaVuSans-54" x="451.953125"/>
       <use xlink:href="#DejaVuSans-4e" x="513.037109"/>
      </g>
     </g>
    </g>
    <g id="xtick_7">
     <g id="line2d_13">
      <path d="M 468.593529 384.48 
L 468.593529 51.84 
" clip-path="url(#p05031b8090)" style="fill: none; stroke: #b0b0b0; stroke-width: 0.8; stroke-linecap: square"/>
     </g>
     <g id="line2d_14">
      <g>
       <use xlink:href="#m5b1c6bd2f4" x="468.593529" y="384.48" style="stroke: #000000; stroke-width: 0.8"/>
      </g>
     </g>
     <g id="text_7">
      <!-- MobileAL -->
      <g transform="translate(471.352904 436.697187) rotate(-90) scale(0.1 -0.1)">
       <use xlink:href="#DejaVuSans-4d"/>
       <use xlink:href="#DejaVuSans-6f" x="86.279297"/>
       <use xlink:href="#DejaVuSans-62" x="147.460938"/>
       <use xlink:href="#DejaVuSans-69" x="210.9375"/>
       <use xlink:href="#DejaVuSans-6c" x="238.720703"/>
       <use xlink:href="#DejaVuSans-65" x="266.503906"/>
       <use xlink:href="#DejaVuSans-41" x="328.027344"/>
       <use xlink:href="#DejaVuSans-4c" x="396.435547"/>
      </g>
     </g>
    </g>
    <g id="xtick_8">
     <g id="line2d_15">
      <path d="M 520.180586 384.48 
L 520.180586 51.84 
" clip-path="url(#p05031b8090)" style="fill: none; stroke: #b0b0b0; stroke-width: 0.8; stroke-linecap: square"/>
     </g>
     <g id="line2d_16">
      <g>
       <use xlink:href="#m5b1c6bd2f4" x="520.180586" y="384.48" style="stroke: #000000; stroke-width: 0.8"/>
      </g>
     </g>
     <g id="text_8">
      <!-- NOLA -->
      <g transform="translate(522.939961 419.470625) rotate(-90) scale(0.1 -0.1)">
       <use xlink:href="#DejaVuSans-4e"/>
       <use xlink:href="#DejaVuSans-4f" x="74.804688"/>
       <use xlink:href="#DejaVuSans-4c" x="153.515625"/>
       <use xlink:href="#DejaVuSans-41" x="211.478516"/>
      </g>
     </g>
    </g>
    <g id="xtick_9">
     <g id="line2d_17">
      <path d="M 571.767643 384.48 
L 571.767643 51.84 
" clip-path="url(#p05031b8090)" style="fill: none; stroke: #b0b0b0; stroke-width: 0.8; stroke-linecap: square"/>
     </g>
     <g id="line2d_18">
      <g>
       <use xlink:href="#m5b1c6bd2f4" x="571.767643" y="384.48" style="stroke: #000000; stroke-width: 0.8"/>
      </g>
     </g>
     <g id="text_9">
      <!-- OKCity -->
      <g transform="translate(574.527018 424.959688) rotate(-90) scale(0.1 -0.1)">
       <defs>
        <path id="DejaVuSans-4b" d="M 628 4666 
L 1259 4666 
L 1259 2694 
L 3353 4666 
L 4166 4666 
L 1850 2491 
L 4331 0 
L 3500 0 
L 1259 2247 
L 1259 0 
L 628 0 
L 628 4666 
z
" transform="scale(0.015625)"/>
        <path id="DejaVuSans-79" d="M 2059 -325 
Q 1816 -950 1584 -1140 
Q 1353 -1331 966 -1331 
L 506 -1331 
L 506 -850 
L 844 -850 
Q 1081 -850 1212 -737 
Q 1344 -625 1503 -206 
L 1606 56 
L 191 3500 
L 800 3500 
L 1894 763 
L 2988 3500 
L 3597 3500 
L 2059 -325 
z
" transform="scale(0.015625)"/>
       </defs>
       <use xlink:href="#DejaVuSans-4f"/>
       <use xlink:href="#DejaVuSans-4b" x="78.710938"/>
       <use xlink:href="#DejaVuSans-43" x="138.787109"/>
       <use xlink:href="#DejaVuSans-69" x="208.611328"/>
       <use xlink:href="#DejaVuSans-74" x="236.394531"/>
       <use xlink:href="#DejaVuSans-79" x="275.603516"/>
      </g>
     </g>
    </g>
    <g id="xtick_10">
     <g id="line2d_19">
      <path d="M 623.3547 384.48 
L 623.3547 51.84 
" clip-path="url(#p05031b8090)" style="fill: none; stroke: #b0b0b0; stroke-width: 0.8; stroke-linecap: square"/>
     </g>
     <g id="line2d_20">
      <g>
       <use xlink:href="#m5b1c6bd2f4" x="623.3547" y="384.48" style="stroke: #000000; stroke-width: 0.8"/>
      </g>
     </g>
     <g id="text_10">
      <!-- ORNL -->
      <g transform="translate(626.114075 419.353437) rotate(-90) scale(0.1 -0.1)">
       <use xlink:href="#DejaVuSans-4f"/>
       <use xlink:href="#DejaVuSans-52" x="78.710938"/>
       <use xlink:href="#DejaVuSans-4e" x="148.193359"/>
       <use xlink:href="#DejaVuSans-4c" x="222.998047"/>
      </g>
     </g>
    </g>
    <g id="xtick_11">
     <g id="line2d_21">
      <path d="M 674.941757 384.48 
L 674.941757 51.84 
" clip-path="url(#p05031b8090)" style="fill: none; stroke: #b0b0b0; stroke-width: 0.8; stroke-linecap: square"/>
     </g>
     <g id="line2d_22">
      <g>
       <use xlink:href="#m5b1c6bd2f4" x="674.941757" y="384.48" style="stroke: #000000; stroke-width: 0.8"/>
      </g>
     </g>
     <g id="text_11">
      <!-- RaleighNC -->
      <g transform="translate(677.701132 443.190938) rotate(-90) scale(0.1 -0.1)">
       <use xlink:href="#DejaVuSans-52"/>
       <use xlink:href="#DejaVuSans-61" x="67.232422"/>
       <use xlink:href="#DejaVuSans-6c" x="128.511719"/>
       <use xlink:href="#DejaVuSans-65" x="156.294922"/>
       <use xlink:href="#DejaVuSans-69" x="217.818359"/>
       <use xlink:href="#DejaVuSans-67" x="245.601562"/>
       <use xlink:href="#DejaVuSans-68" x="309.078125"/>
       <use xlink:href="#DejaVuSans-4e" x="372.457031"/>
       <use xlink:href="#DejaVuSans-43" x="447.261719"/>
      </g>
     </g>
    </g>
    <g id="xtick_12">
     <g id="line2d_23">
      <path d="M 726.528814 384.48 
L 726.528814 51.84 
" clip-path="url(#p05031b8090)" style="fill: none; stroke: #b0b0b0; stroke-width: 0.8; stroke-linecap: square"/>
     </g>
     <g id="line2d_24">
      <g>
       <use xlink:href="#m5b1c6bd2f4" x="726.528814" y="384.48" style="stroke: #000000; stroke-width: 0.8"/>
      </g>
     </g>
     <g id="text_12">
      <!-- RichmondVA -->
      <g transform="translate(729.288189 454.631563) rotate(-90) scale(0.1 -0.1)">
       <defs>
        <path id="DejaVuSans-64" d="M 2906 2969 
L 2906 4863 
L 3481 4863 
L 3481 0 
L 2906 0 
L 2906 525 
Q 2725 213 2448 61 
Q 2172 -91 1784 -91 
Q 1150 -91 751 415 
Q 353 922 353 1747 
Q 353 2572 751 3078 
Q 1150 3584 1784 3584 
Q 2172 3584 2448 3432 
Q 2725 3281 2906 2969 
z
M 947 1747 
Q 947 1113 1208 752 
Q 1469 391 1925 391 
Q 2381 391 2643 752 
Q 2906 1113 2906 1747 
Q 2906 2381 2643 2742 
Q 2381 3103 1925 3103 
Q 1469 3103 1208 2742 
Q 947 2381 947 1747 
z
" transform="scale(0.015625)"/>
        <path id="DejaVuSans-56" d="M 1831 0 
L 50 4666 
L 709 4666 
L 2188 738 
L 3669 4666 
L 4325 4666 
L 2547 0 
L 1831 0 
z
" transform="scale(0.015625)"/>
       </defs>
       <use xlink:href="#DejaVuSans-52"/>
       <use xlink:href="#DejaVuSans-69" x="69.482422"/>
       <use xlink:href="#DejaVuSans-63" x="97.265625"/>
       <use xlink:href="#DejaVuSans-68" x="152.246094"/>
       <use xlink:href="#DejaVuSans-6d" x="215.625"/>
       <use xlink:href="#DejaVuSans-6f" x="313.037109"/>
       <use xlink:href="#DejaVuSans-6e" x="374.21875"/>
       <use xlink:href="#DejaVuSans-64" x="437.597656"/>
       <use xlink:href="#DejaVuSans-56" x="501.074219"/>
       <use xlink:href="#DejaVuSans-41" x="563.107422"/>
      </g>
     </g>
    </g>
    <g id="text_13">
     <!-- [Cfa] Humid Subtropical Locations -->
     <g transform="translate(357.454687 476.476875) scale(0.1 -0.1)">
      <defs>
       <path id="DejaVuSans-5b" d="M 550 4863 
L 1875 4863 
L 1875 4416 
L 1125 4416 
L 1125 -397 
L 1875 -397 
L 1875 -844 
L 550 -844 
L 550 4863 
z
" transform="scale(0.015625)"/>
       <path id="DejaVuSans-66" d="M 2375 4863 
L 2375 4384 
L 1825 4384 
Q 1516 4384 1395 4259 
Q 1275 4134 1275 3809 
L 1275 3500 
L 2222 3500 
L 2222 3053 
L 1275 3053 
L 1275 0 
L 697 0 
L 697 3053 
L 147 3053 
L 147 3500 
L 697 3500 
L 697 3744 
Q 697 4328 969 4595 
Q 1241 4863 1831 4863 
L 2375 4863 
z
" transform="scale(0.015625)"/>
       <path id="DejaVuSans-5d" d="M 1947 4863 
L 1947 -844 
L 622 -844 
L 622 -397 
L 1369 -397 
L 1369 4416 
L 622 4416 
L 622 4863 
L 1947 4863 
z
" transform="scale(0.015625)"/>
       <path id="DejaVuSans-20" transform="scale(0.015625)"/>
       <path id="DejaVuSans-48" d="M 628 4666 
L 1259 4666 
L 1259 2753 
L 3553 2753 
L 3553 4666 
L 4184 4666 
L 4184 0 
L 3553 0 
L 3553 2222 
L 1259 2222 
L 1259 0 
L 628 0 
L 628 4666 
z
" transform="scale(0.015625)"/>
      </defs>
      <use xlink:href="#DejaVuSans-5b"/>
      <use xlink:href="#DejaVuSans-43" x="39.013672"/>
      <use xlink:href="#DejaVuSans-66" x="108.837891"/>
      <use xlink:href="#DejaVuSans-61" x="144.042969"/>
      <use xlink:href="#DejaVuSans-5d" x="205.322266"/>
      <use xlink:href="#DejaVuSans-20" x="244.335938"/>
      <use xlink:href="#DejaVuSans-48" x="276.123047"/>
      <use xlink:href="#DejaVuSans-75" x="351.318359"/>
      <use xlink:href="#DejaVuSans-6d" x="414.697266"/>
      <use xlink:href="#DejaVuSans-69" x="512.109375"/>
      <use xlink:href="#DejaVuSans-64" x="539.892578"/>
      <use xlink:href="#DejaVuSans-20" x="603.369141"/>
      <use xlink:href="#DejaVuSans-53" x="635.15625"/>
      <use xlink:href="#DejaVuSans-75" x="698.632812"/>
      <use xlink:href="#DejaVuSans-62" x="762.011719"/>
      <use xlink:href="#DejaVuSans-74" x="825.488281"/>
      <use xlink:href="#DejaVuSans-72" x="864.697266"/>
      <use xlink:href="#DejaVuSans-6f" x="903.560547"/>
      <use xlink:href="#DejaVuSans-70" x="964.742188"/>
      <use xlink:href="#DejaVuSans-69" x="1028.21875"/>
      <use xlink:href="#DejaVuSans-63" x="1056.001953"/>
      <use xlink:href="#DejaVuSans-61" x="1110.982422"/>
      <use xlink:href="#DejaVuSans-6c" x="1172.261719"/>
      <use xlink:href="#DejaVuSans-20" x="1200.044922"/>
      <use xlink:href="#DejaVuSans-4c" x="1231.832031"/>
      <use xlink:href="#DejaVuSans-6f" x="1285.794922"/>
      <use xlink:href="#DejaVuSans-63" x="1346.976562"/>
      <use xlink:href="#DejaVuSans-61" x="1401.957031"/>
      <use xlink:href="#DejaVuSans-74" x="1463.236328"/>
      <use xlink:href="#DejaVuSans-69" x="1502.445312"/>
      <use xlink:href="#DejaVuSans-6f" x="1530.228516"/>
      <use xlink:href="#DejaVuSans-6e" x="1591.410156"/>
      <use xlink:href="#DejaVuSans-73" x="1654.789062"/>
     </g>
    </g>
   </g>
   <g id="matplotlib.axis_2">
    <g id="ytick_1">
     <g id="line2d_25">
      <path d="M 108 384.48 
L 777.6 384.48 
" clip-path="url(#p05031b8090)" style="fill: none; stroke: #b0b0b0; stroke-width: 0.8; stroke-linecap: square"/>
     </g>
     <g id="line2d_26">
      <defs>
       <path id="m8bc8e7f118" d="M 0 0 
L -3.5 0 
" style="stroke: #000000; stroke-width: 0.8"/>
      </defs>
      <g>
       <use xlink:href="#m8bc8e7f118" x="108" y="384.48" style="stroke: #000000; stroke-width: 0.8"/>
      </g>
     </g>
     <g id="text_14">
      <!-- 0 -->
      <g transform="translate(94.6375 388.279219) scale(0.1 -0.1)">
       <defs>
        <path id="DejaVuSans-30" d="M 2034 4250 
Q 1547 4250 1301 3770 
Q 1056 3291 1056 2328 
Q 1056 1369 1301 889 
Q 1547 409 2034 409 
Q 2525 409 2770 889 
Q 3016 1369 3016 2328 
Q 3016 3291 2770 3770 
Q 2525 4250 2034 4250 
z
M 2034 4750 
Q 2819 4750 3233 4129 
Q 3647 3509 3647 2328 
Q 3647 1150 3233 529 
Q 2819 -91 2034 -91 
Q 1250 -91 836 529 
Q 422 1150 422 2328 
Q 422 3509 836 4129 
Q 1250 4750 2034 4750 
z
" transform="scale(0.015625)"/>
       </defs>
       <use xlink:href="#DejaVuSans-30"/>
      </g>
     </g>
    </g>
    <g id="ytick_2">
     <g id="line2d_27">
      <path d="M 108 321.12 
L 777.6 321.12 
" clip-path="url(#p05031b8090)" style="fill: none; stroke: #b0b0b0; stroke-width: 0.8; stroke-linecap: square"/>
     </g>
     <g id="line2d_28">
      <g>
       <use xlink:href="#m8bc8e7f118" x="108" y="321.12" style="stroke: #000000; stroke-width: 0.8"/>
      </g>
     </g>
     <g id="text_15">
      <!-- 1 -->
      <g transform="translate(94.6375 324.919219) scale(0.1 -0.1)">
       <defs>
        <path id="DejaVuSans-31" d="M 794 531 
L 1825 531 
L 1825 4091 
L 703 3866 
L 703 4441 
L 1819 4666 
L 2450 4666 
L 2450 531 
L 3481 531 
L 3481 0 
L 794 0 
L 794 531 
z
" transform="scale(0.015625)"/>
       </defs>
       <use xlink:href="#DejaVuSans-31"/>
      </g>
     </g>
    </g>
    <g id="ytick_3">
     <g id="line2d_29">
      <path d="M 108 257.76 
L 777.6 257.76 
" clip-path="url(#p05031b8090)" style="fill: none; stroke: #b0b0b0; stroke-width: 0.8; stroke-linecap: square"/>
     </g>
     <g id="line2d_30">
      <g>
       <use xlink:href="#m8bc8e7f118" x="108" y="257.76" style="stroke: #000000; stroke-width: 0.8"/>
      </g>
     </g>
     <g id="text_16">
      <!-- 2 -->
      <g transform="translate(94.6375 261.559219) scale(0.1 -0.1)">
       <defs>
        <path id="DejaVuSans-32" d="M 1228 531 
L 3431 531 
L 3431 0 
L 469 0 
L 469 531 
Q 828 903 1448 1529 
Q 2069 2156 2228 2338 
Q 2531 2678 2651 2914 
Q 2772 3150 2772 3378 
Q 2772 3750 2511 3984 
Q 2250 4219 1831 4219 
Q 1534 4219 1204 4116 
Q 875 4013 500 3803 
L 500 4441 
Q 881 4594 1212 4672 
Q 1544 4750 1819 4750 
Q 2544 4750 2975 4387 
Q 3406 4025 3406 3419 
Q 3406 3131 3298 2873 
Q 3191 2616 2906 2266 
Q 2828 2175 2409 1742 
Q 1991 1309 1228 531 
z
" transform="scale(0.015625)"/>
       </defs>
       <use xlink:href="#DejaVuSans-32"/>
      </g>
     </g>
    </g>
    <g id="ytick_4">
     <g id="line2d_31">
      <path d="M 108 194.4 
L 777.6 194.4 
" clip-path="url(#p05031b8090)" style="fill: none; stroke: #b0b0b0; stroke-width: 0.8; stroke-linecap: square"/>
     </g>
     <g id="line2d_32">
      <g>
       <use xlink:href="#m8bc8e7f118" x="108" y="194.4" style="stroke: #000000; stroke-width: 0.8"/>
      </g>
     </g>
     <g id="text_17">
      <!-- 3 -->
      <g transform="translate(94.6375 198.199219) scale(0.1 -0.1)">
       <defs>
        <path id="DejaVuSans-33" d="M 2597 2516 
Q 3050 2419 3304 2112 
Q 3559 1806 3559 1356 
Q 3559 666 3084 287 
Q 2609 -91 1734 -91 
Q 1441 -91 1130 -33 
Q 819 25 488 141 
L 488 750 
Q 750 597 1062 519 
Q 1375 441 1716 441 
Q 2309 441 2620 675 
Q 2931 909 2931 1356 
Q 2931 1769 2642 2001 
Q 2353 2234 1838 2234 
L 1294 2234 
L 1294 2753 
L 1863 2753 
Q 2328 2753 2575 2939 
Q 2822 3125 2822 3475 
Q 2822 3834 2567 4026 
Q 2313 4219 1838 4219 
Q 1578 4219 1281 4162 
Q 984 4106 628 3988 
L 628 4550 
Q 988 4650 1302 4700 
Q 1616 4750 1894 4750 
Q 2613 4750 3031 4423 
Q 3450 4097 3450 3541 
Q 3450 3153 3228 2886 
Q 3006 2619 2597 2516 
z
" transform="scale(0.015625)"/>
       </defs>
       <use xlink:href="#DejaVuSans-33"/>
      </g>
     </g>
    </g>
    <g id="ytick_5">
     <g id="line2d_33">
      <path d="M 108 131.04 
L 777.6 131.04 
" clip-path="url(#p05031b8090)" style="fill: none; stroke: #b0b0b0; stroke-width: 0.8; stroke-linecap: square"/>
     </g>
     <g id="line2d_34">
      <g>
       <use xlink:href="#m8bc8e7f118" x="108" y="131.04" style="stroke: #000000; stroke-width: 0.8"/>
      </g>
     </g>
     <g id="text_18">
      <!-- 4 -->
      <g transform="translate(94.6375 134.839219) scale(0.1 -0.1)">
       <defs>
        <path id="DejaVuSans-34" d="M 2419 4116 
L 825 1625 
L 2419 1625 
L 2419 4116 
z
M 2253 4666 
L 3047 4666 
L 3047 1625 
L 3713 1625 
L 3713 1100 
L 3047 1100 
L 3047 0 
L 2419 0 
L 2419 1100 
L 313 1100 
L 313 1709 
L 2253 4666 
z
" transform="scale(0.015625)"/>
       </defs>
       <use xlink:href="#DejaVuSans-34"/>
      </g>
     </g>
    </g>
    <g id="ytick_6">
     <g id="line2d_35">
      <path d="M 108 67.68 
L 777.6 67.68 
" clip-path="url(#p05031b8090)" style="fill: none; stroke: #b0b0b0; stroke-width: 0.8; stroke-linecap: square"/>
     </g>
     <g id="line2d_36">
      <g>
       <use xlink:href="#m8bc8e7f118" x="108" y="67.68" style="stroke: #000000; stroke-width: 0.8"/>
      </g>
     </g>
     <g id="text_19">
      <!-- 5 -->
      <g transform="translate(94.6375 71.479219) scale(0.1 -0.1)">
       <defs>
        <path id="DejaVuSans-35" d="M 691 4666 
L 3169 4666 
L 3169 4134 
L 1269 4134 
L 1269 2991 
Q 1406 3038 1543 3061 
Q 1681 3084 1819 3084 
Q 2600 3084 3056 2656 
Q 3513 2228 3513 1497 
Q 3513 744 3044 326 
Q 2575 -91 1722 -91 
Q 1428 -91 1123 -41 
Q 819 9 494 109 
L 494 744 
Q 775 591 1075 516 
Q 1375 441 1709 441 
Q 2250 441 2565 725 
Q 2881 1009 2881 1497 
Q 2881 1984 2565 2268 
Q 2250 2553 1709 2553 
Q 1456 2553 1204 2497 
Q 953 2441 691 2322 
L 691 4666 
z
" transform="scale(0.015625)"/>
       </defs>
       <use xlink:href="#DejaVuSans-35"/>
      </g>
     </g>
    </g>
    <g id="text_20">
     <!-- Installed Nuclear Capacity [MWe] -->
     <g transform="translate(88.557812 301.26625) rotate(-90) scale(0.1 -0.1)">
      <defs>
       <path id="DejaVuSans-49" d="M 628 4666 
L 1259 4666 
L 1259 0 
L 628 0 
L 628 4666 
z
" transform="scale(0.015625)"/>
       <path id="DejaVuSans-57" d="M 213 4666 
L 850 4666 
L 1831 722 
L 2809 4666 
L 3519 4666 
L 4500 722 
L 5478 4666 
L 6119 4666 
L 4947 0 
L 4153 0 
L 3169 4050 
L 2175 0 
L 1381 0 
L 213 4666 
z
" transform="scale(0.015625)"/>
      </defs>
      <use xlink:href="#DejaVuSans-49"/>
      <use xlink:href="#DejaVuSans-6e" x="29.492188"/>
      <use xlink:href="#DejaVuSans-73" x="92.871094"/>
      <use xlink:href="#DejaVuSans-74" x="144.970703"/>
      <use xlink:href="#DejaVuSans-61" x="184.179688"/>
      <use xlink:href="#DejaVuSans-6c" x="245.458984"/>
      <use xlink:href="#DejaVuSans-6c" x="273.242188"/>
      <use xlink:href="#DejaVuSans-65" x="301.025391"/>
      <use xlink:href="#DejaVuSans-64" x="362.548828"/>
      <use xlink:href="#DejaVuSans-20" x="426.025391"/>
      <use xlink:href="#DejaVuSans-4e" x="457.8125"/>
      <use xlink:href="#DejaVuSans-75" x="532.617188"/>
      <use xlink:href="#DejaVuSans-63" x="595.996094"/>
      <use xlink:href="#DejaVuSans-6c" x="650.976562"/>
      <use xlink:href="#DejaVuSans-65" x="678.759766"/>
      <use xlink:href="#DejaVuSans-61" x="740.283203"/>
      <use xlink:href="#DejaVuSans-72" x="801.5625"/>
      <use xlink:href="#DejaVuSans-20" x="842.675781"/>
      <use xlink:href="#DejaVuSans-43" x="874.462891"/>
      <use xlink:href="#DejaVuSans-61" x="944.287109"/>
      <use xlink:href="#DejaVuSans-70" x="1005.566406"/>
      <use xlink:href="#DejaVuSans-61" x="1069.042969"/>
      <use xlink:href="#DejaVuSans-63" x="1130.322266"/>
      <use xlink:href="#DejaVuSans-69" x="1185.302734"/>
      <use xlink:href="#DejaVuSans-74" x="1213.085938"/>
      <use xlink:href="#DejaVuSans-79" x="1252.294922"/>
      <use xlink:href="#DejaVuSans-20" x="1311.474609"/>
      <use xlink:href="#DejaVuSans-5b" x="1343.261719"/>
      <use xlink:href="#DejaVuSans-4d" x="1382.275391"/>
      <use xlink:href="#DejaVuSans-57" x="1468.554688"/>
      <use xlink:href="#DejaVuSans-65" x="1561.556641"/>
      <use xlink:href="#DejaVuSans-5d" x="1623.080078"/>
     </g>
    </g>
   </g>
   <g id="patch_39">
    <path d="M 108 384.48 
L 108 51.84 
" style="fill: none; stroke: #000000; stroke-width: 0.8; stroke-linejoin: miter; stroke-linecap: square"/>
   </g>
   <g id="patch_40">
    <path d="M 777.6 384.48 
L 777.6 51.84 
" style="fill: none; stroke: #000000; stroke-width: 0.8; stroke-linejoin: miter; stroke-linecap: square"/>
   </g>
   <g id="patch_41">
    <path d="M 108 384.48 
L 777.6 384.48 
" style="fill: none; stroke: #000000; stroke-width: 0.8; stroke-linejoin: miter; stroke-linecap: square"/>
   </g>
   <g id="patch_42">
    <path d="M 108 51.84 
L 777.6 51.84 
" style="fill: none; stroke: #000000; stroke-width: 0.8; stroke-linejoin: miter; stroke-linecap: square"/>
   </g>
   <g id="legend_1">
    <g id="patch_43">
     <path d="M 630.35625 114.28125 
L 769.2 114.28125 
Q 771.6 114.28125 771.6 111.88125 
L 771.6 60.24 
Q 771.6 57.84 769.2 57.84 
L 630.35625 57.84 
Q 627.95625 57.84 627.95625 60.24 
L 627.95625 111.88125 
Q 627.95625 114.28125 630.35625 114.28125 
z
" style="fill: #ffffff; opacity: 0.8; stroke: #cccccc; stroke-linejoin: miter"/>
    </g>
    <g id="patch_44">
     <path d="M 632.75625 71.758125 
L 656.75625 71.758125 
L 656.75625 63.358125 
L 632.75625 63.358125 
z
"/>
    </g>
    <g id="text_21">
     <!-- LowCostNuclear -->
     <g transform="translate(666.35625 71.758125) scale(0.12 -0.12)">
      <defs>
       <path id="DejaVuSans-77" d="M 269 3500 
L 844 3500 
L 1563 769 
L 2278 3500 
L 2956 3500 
L 3675 769 
L 4391 3500 
L 4966 3500 
L 4050 0 
L 3372 0 
L 2619 2869 
L 1863 0 
L 1184 0 
L 269 3500 
z
" transform="scale(0.015625)"/>
      </defs>
      <use xlink:href="#DejaVuSans-4c"/>
      <use xlink:href="#DejaVuSans-6f" x="53.962891"/>
      <use xlink:href="#DejaVuSans-77" x="115.144531"/>
      <use xlink:href="#DejaVuSans-43" x="196.931641"/>
      <use xlink:href="#DejaVuSans-6f" x="266.755859"/>
      <use xlink:href="#DejaVuSans-73" x="327.9375"/>
      <use xlink:href="#DejaVuSans-74" x="380.037109"/>
      <use xlink:href="#DejaVuSans-4e" x="419.246094"/>
      <use xlink:href="#DejaVuSans-75" x="494.050781"/>
      <use xlink:href="#DejaVuSans-63" x="557.429688"/>
      <use xlink:href="#DejaVuSans-6c" x="612.410156"/>
      <use xlink:href="#DejaVuSans-65" x="640.193359"/>
      <use xlink:href="#DejaVuSans-61" x="701.716797"/>
      <use xlink:href="#DejaVuSans-72" x="762.996094"/>
     </g>
    </g>
    <g id="patch_45">
     <path d="M 632.75625 89.371875 
L 656.75625 89.371875 
L 656.75625 80.971875 
L 632.75625 80.971875 
z
" style="fill: #ff0000"/>
    </g>
    <g id="text_22">
     <!-- MidCostNuclear -->
     <g transform="translate(666.35625 89.371875) scale(0.12 -0.12)">
      <use xlink:href="#DejaVuSans-4d"/>
      <use xlink:href="#DejaVuSans-69" x="86.279297"/>
      <use xlink:href="#DejaVuSans-64" x="114.0625"/>
      <use xlink:href="#DejaVuSans-43" x="177.539062"/>
      <use xlink:href="#DejaVuSans-6f" x="247.363281"/>
      <use xlink:href="#DejaVuSans-73" x="308.544922"/>
      <use xlink:href="#DejaVuSans-74" x="360.644531"/>
      <use xlink:href="#DejaVuSans-4e" x="399.853516"/>
      <use xlink:href="#DejaVuSans-75" x="474.658203"/>
      <use xlink:href="#DejaVuSans-63" x="538.037109"/>
      <use xlink:href="#DejaVuSans-6c" x="593.017578"/>
      <use xlink:href="#DejaVuSans-65" x="620.800781"/>
      <use xlink:href="#DejaVuSans-61" x="682.324219"/>
      <use xlink:href="#DejaVuSans-72" x="743.603516"/>
     </g>
    </g>
    <g id="patch_46">
     <path d="M 632.75625 106.985625 
L 656.75625 106.985625 
L 656.75625 98.585625 
L 632.75625 98.585625 
z
" style="fill: #ffa500"/>
    </g>
    <g id="text_23">
     <!-- HighCostNuclear -->
     <g transform="translate(666.35625 106.985625) scale(0.12 -0.12)">
      <use xlink:href="#DejaVuSans-48"/>
      <use xlink:href="#DejaVuSans-69" x="75.195312"/>
      <use xlink:href="#DejaVuSans-67" x="102.978516"/>
      <use xlink:href="#DejaVuSans-68" x="166.455078"/>
      <use xlink:href="#DejaVuSans-43" x="229.833984"/>
      <use xlink:href="#DejaVuSans-6f" x="299.658203"/>
      <use xlink:href="#DejaVuSans-73" x="360.839844"/>
      <use xlink:href="#DejaVuSans-74" x="412.939453"/>
      <use xlink:href="#DejaVuSans-4e" x="452.148438"/>
      <use xlink:href="#DejaVuSans-75" x="526.953125"/>
      <use xlink:href="#DejaVuSans-63" x="590.332031"/>
      <use xlink:href="#DejaVuSans-6c" x="645.3125"/>
      <use xlink:href="#DejaVuSans-65" x="673.095703"/>
      <use xlink:href="#DejaVuSans-61" x="734.619141"/>
      <use xlink:href="#DejaVuSans-72" x="795.898438"/>
     </g>
    </g>
   </g>
  </g>
 </g>
 <defs>
  <clipPath id="p05031b8090">
   <rect x="108" y="51.84" width="669.6" height="332.64"/>
  </clipPath>
 </defs>
</svg>
